<svg xmlns="http://www.w3.org/2000/svg" height="90px" version="1.1" width="5970px"><rect height="90px" style="fill: rgb(86, 98, 98)" width="30px" x="0px" y="0px" /><rect height="90px" style="fill: rgb(175, 187, 187)" width="30px" x="30px" y="0px" /><rect height="90px" style="fill: rgb(85, 97, 97)" width="30px" x="60px" y="0px" /><rect height="90px" style="fill: rgb(175, 187, 187)" width="30px" x="90px" y="0px" /><rect height="90px" style="fill: rgb(85, 97, 97)" width="30px" x="120px" y="0px" /><rect height="90px" style="fill: rgb(175, 186, 186)" width="30px" x="150px" y="0px" /><rect height="90px" style="fill: rgb(85, 97, 97)" width="30px" x="180px" y="0px" /><rect height="90px" style="fill: rgb(174, 185, 185)" width="30px" x="210px" y="0px" /><rect height="90px" style="fill: rgb(84, 96, 96)" width="30px" x="240px" y="0px" /><rect height="90px" style="fill: rgb(172, 184, 184)" width="30px" x="270px" y="0px" /><rect height="90px" style="fill: rgb(84, 95, 95)" width="30px" x="300px" y="0px" /><rect height="90px" style="fill: rgb(171, 182, 182)" width="30px" x="330px" y="0px" /><rect height="90px" style="fill: rgb(83, 95, 95)" width="30px" x="360px" y="0px" /><rect height="90px" style="fill: rgb(169, 180, 180)" width="30px" x="390px" y="0px" /><rect height="90px" style="fill: rgb(82, 93, 93)" width="30px" x="420px" y="0px" /><rect height="90px" style="fill: rgb(167, 178, 178)" width="30px" x="450px" y="0px" /><rect height="90px" style="fill: rgb(81, 92, 92)" width="30px" x="480px" y="0px" /><rect height="90px" style="fill: rgb(164, 175, 175)" width="30px" x="510px" y="0px" /><rect height="90px" style="fill: rgb(80, 91, 91)" width="30px" x="540px" y="0px" /><rect height="90px" style="fill: rgb(162, 172, 172)" width="30px" x="570px" y="0px" /><rect height="90px" style="fill: rgb(79, 89, 89)" width="30px" x="600px" y="0px" /><rect height="90px" style="fill: rgb(159, 169, 169)" width="30px" x="630px" y="0px" /><rect height="90px" style="fill: rgb(77, 88, 88)" width="30px" x="660px" y="0px" /><rect height="90px" style="fill: rgb(156, 166, 166)" width="30px" x="690px" y="0px" /><rect height="90px" style="fill: rgb(76, 86, 86)" width="30px" x="720px" y="0px" /><rect height="90px" style="fill: rgb(152, 162, 162)" width="30px" x="750px" y="0px" /><rect height="90px" style="fill: rgb(74, 84, 84)" width="30px" x="780px" y="0px" /><rect height="90px" style="fill: rgb(148, 158, 158)" width="30px" x="810px" y="0px" /><rect height="90px" style="fill: rgb(73, 82, 82)" width="30px" x="840px" y="0px" /><rect height="90px" style="fill: rgb(145, 154, 154)" width="30px" x="870px" y="0px" /><rect height="90px" style="fill: rgb(71, 80, 80)" width="30px" x="900px" y="0px" /><rect height="90px" style="fill: rgb(140, 149, 149)" width="30px" x="930px" y="0px" /><rect height="90px" style="fill: rgb(69, 78, 78)" width="30px" x="960px" y="0px" /><rect height="90px" style="fill: rgb(136, 145, 145)" width="30px" x="990px" y="0px" /><rect height="90px" style="fill: rgb(67, 75, 75)" width="30px" x="1020px" y="0px" /><rect height="90px" style="fill: rgb(132, 140, 140)" width="30px" x="1050px" y="0px" /><rect height="90px" style="fill: rgb(65, 73, 73)" width="30px" x="1080px" y="0px" /><rect height="90px" style="fill: rgb(127, 135, 135)" width="30px" x="1110px" y="0px" /><rect height="90px" style="fill: rgb(63, 71, 71)" width="30px" x="1140px" y="0px" /><rect height="90px" style="fill: rgb(123, 130, 130)" width="30px" x="1170px" y="0px" /><rect height="90px" style="fill: rgb(61, 68, 68)" width="30px" x="1200px" y="0px" /><rect height="90px" style="fill: rgb(118, 124, 124)" width="30px" x="1230px" y="0px" /><rect height="90px" style="fill: rgb(59, 66, 66)" width="30px" x="1260px" y="0px" /><rect height="90px" style="fill: rgb(113, 119, 119)" width="30px" x="1290px" y="0px" /><rect height="90px" style="fill: rgb(57, 63, 63)" width="30px" x="1320px" y="0px" /><rect height="90px" style="fill: rgb(108, 114, 114)" width="30px" x="1350px" y="0px" /><rect height="90px" style="fill: rgb(55, 60, 60)" width="30px" x="1380px" y="0px" /><rect height="90px" style="fill: rgb(103, 108, 108)" width="30px" x="1410px" y="0px" /><rect height="90px" style="fill: rgb(53, 58, 58)" width="30px" x="1440px" y="0px" /><rect height="90px" style="fill: rgb(98, 103, 103)" width="30px" x="1470px" y="0px" /><rect height="90px" style="fill: rgb(50, 55, 55)" width="30px" x="1500px" y="0px" /><rect height="90px" style="fill: rgb(93, 97, 97)" width="30px" x="1530px" y="0px" /><rect height="90px" style="fill: rgb(48, 52, 52)" width="30px" x="1560px" y="0px" /><rect height="90px" style="fill: rgb(88, 92, 92)" width="30px" x="1590px" y="0px" /><rect height="90px" style="fill: rgb(46, 50, 50)" width="30px" x="1620px" y="0px" /><rect height="90px" style="fill: rgb(83, 86, 86)" width="30px" x="1650px" y="0px" /><rect height="90px" style="fill: rgb(44, 47, 47)" width="30px" x="1680px" y="0px" /><rect height="90px" style="fill: rgb(78, 81, 81)" width="30px" x="1710px" y="0px" /><rect height="90px" style="fill: rgb(42, 44, 44)" width="30px" x="1740px" y="0px" /><rect height="90px" style="fill: rgb(73, 76, 76)" width="30px" x="1770px" y="0px" /><rect height="90px" style="fill: rgb(40, 42, 42)" width="30px" x="1800px" y="0px" /><rect height="90px" style="fill: rgb(68, 70, 70)" width="30px" x="1830px" y="0px" /><rect height="90px" style="fill: rgb(38, 39, 39)" width="30px" x="1860px" y="0px" /><rect height="90px" style="fill: rgb(64, 65, 65)" width="30px" x="1890px" y="0px" /><rect height="90px" style="fill: rgb(36, 37, 37)" width="30px" x="1920px" y="0px" /><rect height="90px" style="fill: rgb(59, 60, 60)" width="30px" x="1950px" y="0px" /><rect height="90px" style="fill: rgb(34, 35, 35)" width="30px" x="1980px" y="0px" /><rect height="90px" style="fill: rgb(55, 55, 55)" width="30px" x="2010px" y="0px" /><rect height="90px" style="fill: rgb(32, 32, 32)" width="30px" x="2040px" y="0px" /><rect height="90px" style="fill: rgb(51, 51, 51)" width="30px" x="2070px" y="0px" /><rect height="90px" style="fill: rgb(30, 30, 30)" width="30px" x="2100px" y="0px" /><rect height="90px" style="fill: rgb(46, 46, 46)" width="30px" x="2130px" y="0px" /><rect height="90px" style="fill: rgb(28, 28, 28)" width="30px" x="2160px" y="0px" /><rect height="90px" style="fill: rgb(43, 42, 42)" width="30px" x="2190px" y="0px" /><rect height="90px" style="fill: rgb(27, 26, 26)" width="30px" x="2220px" y="0px" /><rect height="90px" style="fill: rgb(39, 38, 38)" width="30px" x="2250px" y="0px" /><rect height="90px" style="fill: rgb(25, 24, 24)" width="30px" x="2280px" y="0px" /><rect height="90px" style="fill: rgb(35, 34, 34)" width="30px" x="2310px" y="0px" /><rect height="90px" style="fill: rgb(24, 22, 22)" width="30px" x="2340px" y="0px" /><rect height="90px" style="fill: rgb(32, 31, 31)" width="30px" x="2370px" y="0px" /><rect height="90px" style="fill: rgb(22, 21, 21)" width="30px" x="2400px" y="0px" /><rect height="90px" style="fill: rgb(29, 28, 28)" width="30px" x="2430px" y="0px" /><rect height="90px" style="fill: rgb(21, 19, 19)" width="30px" x="2460px" y="0px" /><rect height="90px" style="fill: rgb(27, 25, 25)" width="30px" x="2490px" y="0px" /><rect height="90px" style="fill: rgb(20, 18, 18)" width="30px" x="2520px" y="0px" /><rect height="90px" style="fill: rgb(24, 22, 22)" width="30px" x="2550px" y="0px" /><rect height="90px" style="fill: rgb(19, 17, 17)" width="30px" x="2580px" y="0px" /><rect height="90px" style="fill: rgb(22, 20, 20)" width="30px" x="2610px" y="0px" /><rect height="90px" style="fill: rgb(18, 15, 15)" width="30px" x="2640px" y="0px" /><rect height="90px" style="fill: rgb(20, 18, 18)" width="30px" x="2670px" y="0px" /><rect height="90px" style="fill: rgb(17, 15, 15)" width="30px" x="2700px" y="0px" /><rect height="90px" style="fill: rgb(19, 16, 16)" width="30px" x="2730px" y="0px" /><rect height="90px" style="fill: rgb(17, 14, 14)" width="30px" x="2760px" y="0px" /><rect height="90px" style="fill: rgb(17, 15, 15)" width="30px" x="2790px" y="0px" /><rect height="90px" style="fill: rgb(16, 13, 13)" width="30px" x="2820px" y="0px" /><rect height="90px" style="fill: rgb(16, 14, 14)" width="30px" x="2850px" y="0px" /><rect height="90px" style="fill: rgb(16, 13, 13)" width="30px" x="2880px" y="0px" /><rect height="90px" style="fill: rgb(16, 13, 13)" width="30px" x="2910px" y="0px" /><rect height="90px" style="fill: rgb(16, 13, 13)" width="30px" x="2940px" y="0px" /><rect height="90px" style="fill: rgb(16, 13, 13)" width="30px" x="2970px" y="0px" /><rect height="90px" style="fill: rgb(16, 13, 13)" width="30px" x="3000px" y="0px" /><rect height="90px" style="fill: rgb(16, 13, 13)" width="30px" x="3030px" y="0px" /><rect height="90px" style="fill: rgb(16, 13, 13)" width="30px" x="3060px" y="0px" /><rect height="90px" style="fill: rgb(16, 13, 13)" width="30px" x="3090px" y="0px" /><rect height="90px" style="fill: rgb(16, 13, 13)" width="30px" x="3120px" y="0px" /><rect height="90px" style="fill: rgb(16, 14, 14)" width="30px" x="3150px" y="0px" /><rect height="90px" style="fill: rgb(16, 13, 13)" width="30px" x="3180px" y="0px" /><rect height="90px" style="fill: rgb(17, 15, 15)" width="30px" x="3210px" y="0px" /><rect height="90px" style="fill: rgb(17, 14, 14)" width="30px" x="3240px" y="0px" /><rect height="90px" style="fill: rgb(19, 16, 16)" width="30px" x="3270px" y="0px" /><rect height="90px" style="fill: rgb(17, 15, 15)" width="30px" x="3300px" y="0px" /><rect height="90px" style="fill: rgb(20, 18, 18)" width="30px" x="3330px" y="0px" /><rect height="90px" style="fill: rgb(18, 15, 15)" width="30px" x="3360px" y="0px" /><rect height="90px" style="fill: rgb(22, 20, 20)" width="30px" x="3390px" y="0px" /><rect height="90px" style="fill: rgb(19, 17, 17)" width="30px" x="3420px" y="0px" /><rect height="90px" style="fill: rgb(24, 22, 22)" width="30px" x="3450px" y="0px" /><rect height="90px" style="fill: rgb(20, 18, 18)" width="30px" x="3480px" y="0px" /><rect height="90px" style="fill: rgb(27, 25, 25)" width="30px" x="3510px" y="0px" /><rect height="90px" style="fill: rgb(21, 19, 19)" width="30px" x="3540px" y="0px" /><rect height="90px" style="fill: rgb(29, 28, 28)" width="30px" x="3570px" y="0px" /><rect height="90px" style="fill: rgb(22, 21, 21)" width="30px" x="3600px" y="0px" /><rect height="90px" style="fill: rgb(32, 31, 31)" width="30px" x="3630px" y="0px" /><rect height="90px" style="fill: rgb(24, 22, 22)" width="30px" x="3660px" y="0px" /><rect height="90px" style="fill: rgb(35, 34, 34)" width="30px" x="3690px" y="0px" /><rect height="90px" style="fill: rgb(25, 24, 24)" width="30px" x="3720px" y="0px" /><rect height="90px" style="fill: rgb(39, 38, 38)" width="30px" x="3750px" y="0px" /><rect height="90px" style="fill: rgb(27, 26, 26)" width="30px" x="3780px" y="0px" /><rect height="90px" style="fill: rgb(43, 42, 42)" width="30px" x="3810px" y="0px" /><rect height="90px" style="fill: rgb(28, 28, 28)" width="30px" x="3840px" y="0px" /><rect height="90px" style="fill: rgb(46, 46, 46)" width="30px" x="3870px" y="0px" /><rect height="90px" style="fill: rgb(30, 30, 30)" width="30px" x="3900px" y="0px" /><rect height="90px" style="fill: rgb(51, 51, 51)" width="30px" x="3930px" y="0px" /><rect height="90px" style="fill: rgb(32, 32, 32)" width="30px" x="3960px" y="0px" /><rect height="90px" style="fill: rgb(55, 55, 55)" width="30px" x="3990px" y="0px" /><rect height="90px" style="fill: rgb(34, 35, 35)" width="30px" x="4020px" y="0px" /><rect height="90px" style="fill: rgb(59, 60, 60)" width="30px" x="4050px" y="0px" /><rect height="90px" style="fill: rgb(36, 37, 37)" width="30px" x="4080px" y="0px" /><rect height="90px" style="fill: rgb(64, 65, 65)" width="30px" x="4110px" y="0px" /><rect height="90px" style="fill: rgb(38, 39, 39)" width="30px" x="4140px" y="0px" /><rect height="90px" style="fill: rgb(68, 70, 70)" width="30px" x="4170px" y="0px" /><rect height="90px" style="fill: rgb(40, 42, 42)" width="30px" x="4200px" y="0px" /><rect height="90px" style="fill: rgb(73, 76, 76)" width="30px" x="4230px" y="0px" /><rect height="90px" style="fill: rgb(42, 44, 44)" width="30px" x="4260px" y="0px" /><rect height="90px" style="fill: rgb(78, 81, 81)" width="30px" x="4290px" y="0px" /><rect height="90px" style="fill: rgb(44, 47, 47)" width="30px" x="4320px" y="0px" /><rect height="90px" style="fill: rgb(83, 86, 86)" width="30px" x="4350px" y="0px" /><rect height="90px" style="fill: rgb(46, 50, 50)" width="30px" x="4380px" y="0px" /><rect height="90px" style="fill: rgb(88, 92, 92)" width="30px" x="4410px" y="0px" /><rect height="90px" style="fill: rgb(48, 52, 52)" width="30px" x="4440px" y="0px" /><rect height="90px" style="fill: rgb(93, 97, 97)" width="30px" x="4470px" y="0px" /><rect height="90px" style="fill: rgb(50, 55, 55)" width="30px" x="4500px" y="0px" /><rect height="90px" style="fill: rgb(98, 103, 103)" width="30px" x="4530px" y="0px" /><rect height="90px" style="fill: rgb(53, 58, 58)" width="30px" x="4560px" y="0px" /><rect height="90px" style="fill: rgb(103, 108, 108)" width="30px" x="4590px" y="0px" /><rect height="90px" style="fill: rgb(55, 60, 60)" width="30px" x="4620px" y="0px" /><rect height="90px" style="fill: rgb(108, 114, 114)" width="30px" x="4650px" y="0px" /><rect height="90px" style="fill: rgb(57, 63, 63)" width="30px" x="4680px" y="0px" /><rect height="90px" style="fill: rgb(113, 119, 119)" width="30px" x="4710px" y="0px" /><rect height="90px" style="fill: rgb(59, 66, 66)" width="30px" x="4740px" y="0px" /><rect height="90px" style="fill: rgb(118, 124, 124)" width="30px" x="4770px" y="0px" /><rect height="90px" style="fill: rgb(61, 68, 68)" width="30px" x="4800px" y="0px" /><rect height="90px" style="fill: rgb(123, 130, 130)" width="30px" x="4830px" y="0px" /><rect height="90px" style="fill: rgb(63, 71, 71)" width="30px" x="4860px" y="0px" /><rect height="90px" style="fill: rgb(127, 135, 135)" width="30px" x="4890px" y="0px" /><rect height="90px" style="fill: rgb(65, 73, 73)" width="30px" x="4920px" y="0px" /><rect height="90px" style="fill: rgb(132, 140, 140)" width="30px" x="4950px" y="0px" /><rect height="90px" style="fill: rgb(67, 75, 75)" width="30px" x="4980px" y="0px" /><rect height="90px" style="fill: rgb(136, 145, 145)" width="30px" x="5010px" y="0px" /><rect height="90px" style="fill: rgb(69, 78, 78)" width="30px" x="5040px" y="0px" /><rect height="90px" style="fill: rgb(140, 149, 149)" width="30px" x="5070px" y="0px" /><rect height="90px" style="fill: rgb(71, 80, 80)" width="30px" x="5100px" y="0px" /><rect height="90px" style="fill: rgb(145, 154, 154)" width="30px" x="5130px" y="0px" /><rect height="90px" style="fill: rgb(73, 82, 82)" width="30px" x="5160px" y="0px" /><rect height="90px" style="fill: rgb(148, 158, 158)" width="30px" x="5190px" y="0px" /><rect height="90px" style="fill: rgb(74, 84, 84)" width="30px" x="5220px" y="0px" /><rect height="90px" style="fill: rgb(152, 162, 162)" width="30px" x="5250px" y="0px" /><rect height="90px" style="fill: rgb(76, 86, 86)" width="30px" x="5280px" y="0px" /><rect height="90px" style="fill: rgb(156, 166, 166)" width="30px" x="5310px" y="0px" /><rect height="90px" style="fill: rgb(77, 88, 88)" width="30px" x="5340px" y="0px" /><rect height="90px" style="fill: rgb(159, 169, 169)" width="30px" x="5370px" y="0px" /><rect height="90px" style="fill: rgb(79, 89, 89)" width="30px" x="5400px" y="0px" /><rect height="90px" style="fill: rgb(162, 172, 172)" width="30px" x="5430px" y="0px" /><rect height="90px" style="fill: rgb(80, 91, 91)" width="30px" x="5460px" y="0px" /><rect height="90px" style="fill: rgb(164, 175, 175)" width="30px" x="5490px" y="0px" /><rect height="90px" style="fill: rgb(81, 92, 92)" width="30px" x="5520px" y="0px" /><rect height="90px" style="fill: rgb(167, 178, 178)" width="30px" x="5550px" y="0px" /><rect height="90px" style="fill: rgb(82, 93, 93)" width="30px" x="5580px" y="0px" /><rect height="90px" style="fill: rgb(169, 180, 180)" width="30px" x="5610px" y="0px" /><rect height="90px" style="fill: rgb(83, 95, 95)" width="30px" x="5640px" y="0px" /><rect height="90px" style="fill: rgb(171, 182, 182)" width="30px" x="5670px" y="0px" /><rect height="90px" style="fill: rgb(84, 95, 95)" width="30px" x="5700px" y="0px" /><rect height="90px" style="fill: rgb(172, 184, 184)" width="30px" x="5730px" y="0px" /><rect height="90px" style="fill: rgb(84, 96, 96)" width="30px" x="5760px" y="0px" /><rect height="90px" style="fill: rgb(174, 185, 185)" width="30px" x="5790px" y="0px" /><rect height="90px" style="fill: rgb(85, 97, 97)" width="30px" x="5820px" y="0px" /><rect height="90px" style="fill: rgb(175, 186, 186)" width="30px" x="5850px" y="0px" /><rect height="90px" style="fill: rgb(85, 97, 97)" width="30px" x="5880px" y="0px" /><rect height="90px" style="fill: rgb(175, 187, 187)" width="30px" x="5910px" y="0px" /><rect height="90px" style="fill: rgb(85, 97, 97)" width="30px" x="5940px" y="0px" /></svg>
