<?xml version="1.0" standalone="no"?>
<!DOCTYPE svg PUBLIC "-//W3C//DTD SVG 20010904//EN"
 "http://www.w3.org/TR/2001/REC-SVG-20010904/DTD/svg10.dtd">
<svg version="1.0" xmlns="http://www.w3.org/2000/svg"
 width="500.000000pt" height="500.000000pt" viewBox="0 0 500.000000 500.000000"
 preserveAspectRatio="xMidYMid meet">
<metadata>
Created by potrace 1.11, written by Peter Selinger 2001-2013
</metadata>
<g transform="translate(0.000000,500.000000) scale(0.100000,-0.100000)"
fill="#000000" stroke="none">
<path d="M0 2500 l0 -2500 2500 0 2500 0 0 2500 0 2500 -2500 0 -2500 0 0
-2500z m1208 1745 c28 -9 54 -15 59 -14 4 1 11 0 16 -1 17 -6 28 -8 53 -9 14
0 23 -5 20 -10 -4 -5 3 -7 14 -4 11 3 20 0 20 -6 0 -6 7 -8 17 -4 10 4 14 2
10 -4 -5 -7 1 -9 15 -5 13 3 19 1 15 -5 -4 -6 -1 -11 6 -10 34 1 48 -4 41 -15
-5 -8 -2 -9 9 -5 10 3 17 2 17 -3 0 -6 3 -9 8 -8 7 1 17 -2 133 -52 39 -16 76
-30 82 -30 6 0 65 -27 132 -59 66 -32 138 -66 160 -74 88 -33 125 -51 125 -60
0 -6 3 -8 6 -4 4 3 24 -3 45 -14 22 -11 39 -17 39 -14 0 4 29 -9 64 -28 35
-19 88 -44 117 -55 30 -11 79 -30 109 -42 86 -34 181 -71 225 -87 21 -8 63
-25 92 -39 30 -13 56 -24 60 -24 7 0 168 -64 238 -95 75 -33 122 -51 205 -81
41 -15 104 -38 140 -51 36 -13 88 -32 115 -42 28 -10 61 -23 75 -29 14 -6 70
-27 125 -47 226 -83 334 -135 335 -161 0 -6 10 -16 23 -22 20 -11 20 -11 -8
-7 -28 5 -29 5 -7 -6 12 -7 22 -18 22 -24 0 -7 9 -24 20 -37 10 -14 16 -29 12
-33 -4 -5 -2 -6 3 -3 6 3 16 0 23 -8 10 -11 10 -14 -2 -14 -9 0 -12 -7 -9 -20
5 -19 18 -24 106 -46 15 -3 27 -12 27 -18 0 -21 -60 -99 -150 -194 -47 -50
-97 -106 -112 -124 -16 -18 -40 -47 -55 -64 -16 -17 -48 -55 -73 -85 -25 -30
-61 -70 -80 -89 -19 -19 -45 -48 -57 -63 -53 -70 -164 -184 -234 -241 -42 -33
-117 -96 -167 -138 -50 -43 -95 -78 -100 -78 -6 0 -50 -35 -99 -78 -48 -43
-131 -113 -183 -157 -52 -43 -94 -80 -92 -82 5 -7 -60 -66 -148 -133 -86 -66
-160 -143 -160 -168 0 -20 2 -22 22 -11 13 7 30 22 39 33 10 12 41 34 71 50
l53 27 -50 -45 c-27 -25 -53 -46 -57 -46 -4 0 -40 -29 -80 -65 -40 -36 -83
-68 -95 -71 -13 -3 -20 -10 -17 -15 3 -5 -4 -9 -16 -9 -13 0 -18 -4 -15 -11 7
-11 -27 -49 -44 -49 -5 0 -11 7 -15 15 -8 21 -36 7 -36 -17 0 -14 5 -18 16
-14 22 9 7 -13 -35 -49 -19 -16 -44 -39 -56 -51 -19 -19 -58 -20 -56 -1 3 23
-1 28 -16 23 -10 -3 -29 3 -43 14 -25 19 -25 19 -5 34 26 18 14 31 -15 16 -18
-10 -24 -9 -36 8 -16 23 -61 34 -68 17 -4 -11 -17 -12 -86 -6 -12 1 -11 5 4
16 16 12 17 17 7 28 -10 10 -12 9 -9 -3 2 -9 -4 -14 -15 -13 -12 1 -17 -4 -13
-14 3 -8 6 -19 6 -24 0 -6 5 -7 12 -3 7 5 8 3 3 -6 -12 -20 -29 9 -74 124 -22
56 -51 129 -65 163 -13 35 -21 63 -18 63 4 0 25 -46 47 -103 33 -85 44 -102
61 -102 12 -1 30 -7 40 -15 11 -8 8 -2 -5 13 -18 20 -27 24 -33 15 -4 -8 -7 2
-6 24 1 21 -5 43 -15 52 -8 9 -23 38 -32 66 -9 27 -21 50 -25 50 -5 0 -7 7 -4
15 4 8 1 15 -5 15 -6 0 -8 7 -4 17 4 10 2 14 -4 10 -6 -4 -13 0 -17 8 -3 8 0
15 7 16 9 0 9 2 -1 6 -6 2 -10 8 -7 13 3 5 -2 16 -11 24 -8 9 -12 16 -7 16 4
0 -1 7 -11 15 -14 11 -16 15 -5 15 9 0 10 3 4 8 -10 6 -65 144 -80 200 -4 12
-10 22 -15 22 -9 0 7 -58 39 -137 24 -60 20 -73 -5 -15 -28 64 -133 372 -127
372 3 0 -4 8 -15 18 -11 9 -33 61 -51 117 -17 55 -55 179 -85 276 -61 197
-138 414 -168 473 -21 41 -27 63 -32 114 -2 18 -8 38 -14 44 -9 9 -8 16 1 27
9 12 9 13 -1 7 -13 -8 -36 39 -29 59 3 6 -13 62 -34 125 -22 63 -41 125 -43
137 -16 87 -80 286 -211 646 -25 70 -43 132 -39 139 4 6 3 8 -3 5 -5 -3 -17
10 -26 29 -21 43 -22 54 -2 28 15 -19 15 -11 -1 31 -4 11 -8 25 -9 31 -2 6 -6
26 -10 43 -6 27 -4 31 14 31 17 0 21 -6 22 -32 0 -18 9 -51 19 -73 l19 -40 -1
49 c-2 32 2 51 10 54 7 2 10 8 6 13 -10 16 8 9 22 -8 13 -16 14 -17 8 -1 -4
13 1 19 21 24 14 3 29 4 32 1 3 -3 12 0 20 8 16 16 43 20 43 7 0 -5 7 -9 15
-9 8 0 15 9 15 19 0 22 20 23 88 3z m1714 -611 c62 -20 138 -48 168 -61 30
-13 123 -49 205 -80 160 -59 304 -125 287 -131 -6 -2 -22 4 -36 13 -14 9 -26
16 -28 15 -3 -2 -15 3 -108 40 -25 11 -126 49 -225 85 -296 110 -407 155 -381
155 3 0 56 -16 118 -36z m1378 -1012 c0 -5 -8 -17 -18 -28 -10 -10 -21 -27
-25 -37 -4 -10 -11 -16 -16 -13 -5 3 -14 -8 -21 -24 -7 -16 -16 -28 -20 -25
-4 3 -13 -9 -20 -25 -7 -16 -17 -27 -22 -24 -5 3 -12 -3 -15 -15 -3 -11 -10
-18 -16 -14 -5 3 -7 2 -4 -4 9 -14 -26 -57 -106 -128 -26 -23 -73 -55 -83 -55
-6 0 105 131 141 165 12 11 47 52 80 90 98 117 145 162 145 137z m-2921 -132
c0 -10 -3 -8 -9 5 -12 27 -12 43 0 25 5 -8 9 -22 9 -30z m2781 -84 c0 -2 -8
-10 -17 -17 -16 -13 -17 -12 -4 4 13 16 21 21 21 13z m-310 -360 c0 -2 -8 -10
-17 -17 -16 -13 -17 -12 -4 4 13 16 21 21 21 13z m-136 -114 c-33 -31 -69 -64
-79 -72 -17 -14 -17 -14 -7 6 6 12 28 34 48 50 21 16 49 39 63 51 50 43 35 22
-25 -35z m-284 -206 c0 -2 -8 -10 -17 -17 -16 -13 -17 -12 -4 4 13 16 21 21
21 13z m-55 -67 c-4 -5 -12 -9 -20 -9 -8 0 -19 -8 -24 -17 -6 -10 -11 -14 -11
-9 0 15 42 56 52 50 4 -3 6 -10 3 -15z m-65 -47 c0 -4 -9 -13 -20 -20 -16 -10
-20 -10 -18 0 2 7 10 16 18 20 20 9 20 9 20 0z m-58 -29 c-6 -3 -10 -9 -6 -14
3 -5 0 -8 -8 -7 -7 2 -12 -4 -10 -12 2 -8 0 -12 -4 -7 -4 4 -17 -1 -28 -10
-12 -10 -3 1 18 25 22 23 42 39 45 35 3 -3 0 -8 -7 -10z m-227 -202 c3 -5 2
-12 -3 -15 -5 -3 -9 1 -9 9 0 17 3 19 12 6z m-105 -91 c-32 -28 -38 -25 -10 5
13 14 26 23 28 20 3 -3 -5 -14 -18 -25z m25 -96 c-33 -30 -59 -59 -57 -64 1
-6 -3 -9 -9 -8 -6 2 -16 -6 -22 -17 -15 -25 -27 -34 -41 -29 -6 2 -58 -35
-116 -83 -58 -48 -98 -78 -90 -67 8 10 21 23 28 27 7 5 10 13 6 18 -3 5 -1 8
4 7 14 -4 78 47 142 113 30 31 66 60 80 64 14 4 47 27 74 51 26 24 51 44 55
44 3 -1 -21 -26 -54 -56z m-410 -342 l-28 -27 24 31 c13 17 26 30 28 27 3 -2
-8 -16 -24 -31z"/>
<path d="M930 3970 c6 -11 12 -20 14 -20 2 0 2 9 -1 20 -3 11 -9 20 -15 20 -5
0 -4 -9 2 -20z"/>
<path d="M976 3840 c7 -28 12 -35 18 -29 2 2 -2 15 -10 29 l-15 25 7 -25z"/>
<path d="M2343 2898 c37 -17 47 -27 44 -40 -3 -10 -1 -21 4 -24 6 -3 5 -11 -2
-20 -6 -7 -9 -21 -5 -29 7 -19 -2 -19 -66 3 -148 52 -162 56 -166 43 -3 -9
-10 -7 -24 6 -21 18 -21 18 -3 -16 13 -26 19 -31 26 -20 6 10 9 10 9 2 0 -11
109 -69 163 -87 9 -3 17 -12 17 -21 0 -16 -26 -14 -82 7 -15 5 -32 7 -38 3 -6
-4 -17 -1 -25 5 -20 17 -19 9 10 -52 13 -29 49 -111 78 -183 30 -71 78 -184
107 -250 29 -66 55 -132 57 -147 3 -16 9 -28 14 -28 5 0 37 28 71 61 65 63
205 183 298 254 29 22 72 58 96 80 60 56 68 62 90 69 11 3 46 31 79 61 32 30
64 55 71 55 28 0 0 29 -44 46 -26 9 -83 36 -127 59 -93 49 -134 65 -195 79
-14 3 -42 10 -62 15 -21 5 -38 7 -38 5 0 -3 -9 0 -20 6 -11 6 -37 13 -58 15
-38 5 -75 12 -79 15 -2 2 -7 4 -13 5 -5 1 -11 4 -12 5 -2 1 -21 4 -43 5 -22 2
-42 4 -45 5 -3 1 -9 2 -13 1 -5 -1 -26 3 -48 9 -22 6 -48 13 -57 16 -9 2 5 -6
31 -18z"/>
<path d="M1295 2798 c4 -13 11 -27 16 -33 5 -5 4 5 -2 23 -12 36 -24 44 -14
10z"/>
<path d="M3105 2737 c23 -14 81 -36 110 -43 11 -2 -2 7 -30 20 -27 13 -53 22
-57 20 -4 -3 -9 0 -13 6 -3 5 -12 10 -18 10 -7 0 -3 -6 8 -13z"/>
<path d="M3273 2594 c8 -8 -40 -52 -65 -60 -10 -3 -18 -9 -18 -14 0 -4 -12
-11 -27 -15 -36 -9 -53 -23 -47 -39 5 -12 -35 -36 -61 -36 -7 0 -37 -19 -65
-42 -29 -24 -60 -47 -69 -53 -9 -5 -35 -26 -57 -45 -23 -19 -70 -57 -104 -85
-80 -63 -231 -207 -225 -213 3 -3 -1 -12 -8 -20 -21 -26 23 2 67 42 21 20 42
36 45 36 4 0 17 10 29 23 11 12 33 31 47 42 15 11 32 25 40 32 16 15 135 103
165 123 13 8 31 22 40 30 8 9 34 29 55 45 22 16 60 49 84 72 24 24 47 43 52
43 5 0 37 27 71 60 35 33 66 60 71 60 4 0 7 5 7 10 0 6 -7 10 -17 10 -9 0 -13
-3 -10 -6z m-703 -589 c-7 -8 -17 -15 -23 -15 -6 0 -2 8 9 19 22 21 33 19 14
-4z"/>
<path d="M1417 2502 c9 -29 19 -50 21 -47 5 5 -18 77 -29 89 -4 5 -1 -14 8
-42z"/>
<path d="M1446 2407 c3 -10 9 -15 12 -12 3 3 0 11 -7 18 -10 9 -11 8 -5 -6z"/>
<path d="M1457 2359 c4 -13 8 -18 11 -10 2 7 -1 18 -6 23 -8 8 -9 4 -5 -13z"/>
<path d="M1496 2247 c3 -10 9 -15 12 -12 3 3 0 11 -7 18 -10 9 -11 8 -5 -6z"/>
<path d="M1516 2175 c4 -8 8 -15 10 -15 2 0 4 7 4 15 0 8 -4 15 -10 15 -5 0
-7 -7 -4 -15z"/>
<path d="M1541 2104 c0 -11 3 -14 6 -6 3 7 2 16 -1 19 -3 4 -6 -2 -5 -13z"/>
<path d="M1561 2040 c0 -8 4 -22 9 -30 12 -18 12 -2 0 25 -6 13 -9 15 -9 5z"/>
<path d="M1581 1990 c-2 -22 29 -95 40 -98 8 -2 10 0 4 5 -5 4 -12 17 -14 28
-3 19 -30 76 -30 65z"/>
<path d="M1651 1830 c-1 -23 15 -45 23 -31 4 6 3 11 -3 11 -5 0 -12 8 -14 18
-3 12 -5 13 -6 2z"/>
<path d="M1675 1769 c-4 -6 -5 -12 -2 -15 2 -3 7 2 10 11 7 17 1 20 -8 4z"/>
<path d="M1685 1739 c-4 -6 -5 -12 -2 -15 2 -3 7 2 10 11 7 17 1 20 -8 4z"/>
<path d="M1696 1690 c3 -14 11 -32 16 -40 6 -10 7 -7 2 10 -3 14 -11 32 -16
40 -6 10 -7 7 -2 -10z"/>
<path d="M2382 1008 c-19 -19 -14 -30 8 -18 11 6 20 15 20 20 0 14 -14 12 -28
-2z"/>
<path d="M1958 975 c9 -19 23 -35 32 -35 13 1 13 2 -1 10 -9 5 -20 21 -23 35
-4 14 -10 25 -15 25 -5 0 -1 -16 7 -35z"/>
<path d="M2280 905 c0 -12 33 -55 41 -55 15 0 10 27 -7 44 -15 16 -34 21 -34
11z"/>
</g>
</svg>
